<svg width="24" height="25" viewBox="0 0 24 25" fill="none" xmlns="http://www.w3.org/2000/svg">
<path fill-rule="evenodd" clip-rule="evenodd" d="M0.21967 0.519658C0.512563 0.226764 0.987437 0.226764 1.28033 0.519658L12 11.2393L22.7197 0.519658C23.0126 0.226765 23.4874 0.226765 23.7803 0.519658C24.0732 0.812552 24.0732 1.28743 23.7803 1.58032L13.0607 12.3L23.7803 23.0197C24.0732 23.3126 24.0732 23.7874 23.7803 24.0803C23.4874 24.3732 23.0126 24.3732 22.7197 24.0803L12 13.3606L1.28033 24.0803C0.987438 24.3732 0.512564 24.3732 0.219671 24.0803C-0.0732226 23.7874 -0.0732226 23.3126 0.219671 23.0197L10.9393 12.3L0.21967 1.58032C-0.0732233 1.28742 -0.0732233 0.812551 0.21967 0.519658Z" fill="white"/>
</svg>
