<svg width="913" height="681" viewBox="0 0 913 681" fill="none" xmlns="http://www.w3.org/2000/svg">
<path d="M658.109 641.27H102.002V643.631H658.109V641.27Z" fill="#3F3D56"/>
<path d="M396.917 316.376C396.917 316.376 385.115 369.485 408.719 360.043C432.323 350.602 418.161 314.016 418.161 314.016L396.917 316.376Z" fill="#FFB9B9"/>
<path d="M617.615 334.078C617.615 334.078 645.94 368.304 628.237 375.385C610.534 382.466 601.092 343.52 603.452 339.979C605.813 336.439 617.615 334.078 617.615 334.078Z" fill="#FFB9B9"/>
<path d="M550.344 92.1382C569.898 92.1382 585.75 76.2864 585.75 56.7322C585.75 37.178 569.898 21.3262 550.344 21.3262C530.789 21.3262 514.938 37.178 514.938 56.7322C514.938 76.2864 530.789 92.1382 550.344 92.1382Z" fill="#FFB9B9"/>
<path d="M523.789 70.3047L519.068 106.891L558.014 121.053L566.276 79.7457L523.789 70.3047Z" fill="#FFB9B9"/>
<path d="M545.623 106.3C545.623 106.3 525.615 96.4226 521.457 88.3789L512.577 96.8581C512.577 96.8581 448.846 90.9571 439.404 122.822C429.963 154.688 438.224 270.348 438.224 270.348C438.224 270.348 425.242 322.276 428.783 323.457C432.323 324.637 475.991 345.88 537.361 334.078C537.361 334.078 564.506 329.358 569.227 332.898C573.947 336.439 566.866 276.249 566.866 276.249C566.866 276.249 614.074 170.03 605.813 157.048C597.551 144.066 560.965 116.921 560.965 116.921L563.326 103.939C563.326 103.939 546.803 111.02 545.623 106.3Z" fill="#CFCCE0"/>
<path d="M448.846 114.561C448.846 114.561 427.602 125.182 424.062 141.705C420.521 158.228 387.475 295.131 391.016 303.393C394.557 311.654 393.376 322.276 393.376 322.276L424.062 318.735C424.062 318.735 418.161 310.474 421.701 306.933C425.242 303.393 428.782 291.591 426.422 286.87C424.062 282.149 421.701 290.41 434.683 275.068C447.666 259.725 477.171 119.281 448.846 114.561Z" fill="#CFCCE0"/>
<path d="M598.731 154.688C598.731 154.688 608.763 155.278 611.123 171.8C613.483 188.323 617.614 290.411 617.614 290.411C617.614 290.411 632.957 323.456 627.056 328.177C621.155 332.898 624.695 339.979 624.695 339.979L603.452 345.88L557.424 273.888L598.731 154.688Z" fill="#CFCCE0"/>
<path d="M432.323 318.736C432.323 318.736 425.242 319.917 425.242 345.881C425.242 371.845 412.26 452.099 420.521 465.081C428.782 478.063 429.963 594.903 429.963 594.903C429.963 594.903 452.386 604.345 471.27 573.66L473.63 557.137L478.351 476.883L497.234 376.566L523.198 487.505C523.198 487.505 519.658 620.868 532.64 620.868C545.622 620.868 570.406 610.246 570.406 610.246C570.406 610.246 576.307 598.444 573.947 592.543C571.587 586.642 569.226 587.822 571.587 583.101C573.947 578.38 577.488 455.64 577.488 455.64C577.488 455.64 572.767 329.358 566.866 325.818C560.965 322.277 432.323 318.736 432.323 318.736Z" fill="#2F2E41"/>
<path d="M432.323 590.182L413.44 610.245C413.44 610.245 379.214 642.111 408.719 643.291C438.224 644.471 454.747 624.408 454.747 622.047C454.747 619.687 455.927 611.426 464.188 611.426C472.45 611.426 492.513 591.362 487.792 583.101C483.071 574.839 468.909 571.299 468.909 571.299L432.323 590.182Z" fill="#2F2E41"/>
<path d="M533.821 616.146C533.821 616.146 519.658 644.471 527.92 650.372C536.181 656.273 538.541 658.633 538.541 658.633C538.541 658.633 545.623 657.453 544.442 668.075C543.262 678.697 586.93 684.598 589.29 676.337C591.65 668.075 590.47 651.552 585.749 646.831C581.029 642.111 566.866 609.065 566.866 609.065C566.866 609.065 551.524 591.362 533.821 616.146Z" fill="#2F2E41"/>
<path d="M586.076 28.3013L592.746 27.3538C592.746 27.3538 583.461 10.264 565.49 7.16086L571.798 2.90315C571.798 2.90315 560.837 -4.93077 546.67 5.13875C539.223 10.4321 530.576 16.6803 524.216 24.5447L517.709 22.9547L518.963 29.5975L507.998 33.2539L518.016 34.564C516.634 37.6962 515.728 41.0171 515.327 44.4169C514.939 47.8208 515.888 51.2425 517.974 53.9597C517.974 53.9597 529.32 40.2054 529.915 37.7731L528.429 43.8537C528.429 43.8537 535.842 39.866 536.733 36.2177L539.007 41.2839L542.298 35.0002L561.099 46.683L559.123 40.4007L571.38 45.3294L568.044 37.4259C568.044 37.4259 580.472 48.84 579.389 55.6637C578.307 62.4872 580.961 69.8522 580.961 69.8522C580.961 69.8522 599.864 41.3364 586.076 28.3013Z" fill="#2F2E41"/>
<path d="M912.921 429.451H723.921V431.713H912.921V429.451Z" fill="#3F3D56"/>
<path d="M206.455 603.709H160.896V649.267H206.455V603.709Z" fill="#CFCCE0"/>
<path d="M200.46 643.272H152.504V595.316H200.46V643.272ZM154.902 640.874H198.062V597.714H154.902L154.902 640.874Z" fill="#3F3D56"/>
<path d="M256.298 205.634L227.467 216.785L238.231 244.618L267.063 233.468L256.298 205.634Z" fill="#CFCCE0"/>
<path d="M261.853 231.273L231.504 243.01L220.173 213.712L250.522 201.975L261.853 231.273ZM232.455 240.958L259.769 230.395L249.571 204.026L222.257 214.59L232.455 240.958Z" fill="#3F3D56"/>
<path d="M786.08 544.942L776.029 515.709L747.808 525.411L757.859 554.645L786.08 544.942Z" fill="#CFCCE0"/>
<path d="M760.25 549.522L749.671 518.75L779.377 508.537L789.956 539.309L760.25 549.522ZM751.685 519.778L761.207 547.473L787.942 538.281L778.421 510.586L751.685 519.778Z" fill="#3F3D56"/>
<path d="M143.341 399.622C160.244 399.984 173.691 412.234 173.691 412.234C173.691 412.234 159.731 423.896 142.828 423.533C125.924 423.17 112.478 410.921 112.478 410.921C112.478 410.921 126.437 399.259 143.341 399.622Z" fill="#FD5555"/>
<path d="M58.3581 341.922C73.6298 349.177 91.1416 344.257 91.1416 344.257C91.1416 344.257 83.893 327.574 68.6213 320.319C53.3496 313.064 35.8379 317.984 35.8379 317.984C35.8379 317.984 43.0864 334.667 58.3581 341.922Z" fill="#FD5555"/>
<path d="M59.9101 334.71C76.7474 333.172 91.4851 343.833 91.4851 343.833C91.4851 343.833 78.9241 356.989 62.0867 358.528C45.2494 360.067 30.5117 349.405 30.5117 349.405C30.5117 349.405 43.0727 336.249 59.9101 334.71Z" fill="#3F3D56"/>
<path d="M121.631 337.625C120.017 354.456 130.613 369.241 130.613 369.241C130.613 369.241 143.825 356.739 145.439 339.908C147.053 323.078 136.457 308.293 136.457 308.293C136.457 308.293 123.245 320.795 121.631 337.625Z" fill="#3F3D56"/>
<path d="M200.927 440.846C192.095 455.264 195.134 473.198 195.134 473.198C195.134 473.198 212.49 467.756 221.322 453.338C230.153 438.921 227.115 420.986 227.115 420.986C227.115 420.986 209.758 426.428 200.927 440.846Z" fill="#3F3D56"/>
<path d="M175.306 597.605L176.593 596.735C172.056 590.152 169.579 582.369 169.477 574.374C169.513 562.68 175.256 551.864 180.811 541.404C181.842 539.463 182.87 537.527 183.859 535.593C188.008 527.707 191.315 519.405 193.725 510.825C202.341 478.805 193.858 441.028 171.033 409.771C152.926 384.974 125.934 363.291 88.5146 343.482L87.7881 344.855C124.994 364.551 151.813 386.085 169.778 410.687C192.329 441.568 200.72 478.852 192.225 510.422C189.843 518.896 186.576 527.097 182.476 534.887C181.491 536.813 180.467 538.741 179.439 540.676C173.796 551.303 167.961 562.291 167.923 574.37C168.026 582.675 170.596 590.763 175.306 597.605Z" fill="#3F3D56"/>
<path d="M14.7557 345.523C22.905 345.523 29.5113 338.917 29.5113 330.767C29.5113 322.618 22.905 316.012 14.7557 316.012C6.60633 316.012 0 322.618 0 330.767C0 338.917 6.60633 345.523 14.7557 345.523Z" fill="#3F3D56"/>
<path d="M818.044 417.926L628.109 349.709L662.018 255.296L780.281 226.293L851.954 323.514L818.044 417.926Z" fill="#2F2E41"/>
<path d="M795.035 399.204L653.096 345.098C689.943 295.741 706.421 260.925 706.433 206.139L848.372 260.245C815.397 307.086 801.607 342.299 795.035 399.204Z" fill="#BABECD"/>
<path d="M806.207 267.65L732.672 239.619L731.368 243.039L804.903 271.07L806.207 267.65Z" fill="#3F3D56"/>
<path d="M800.992 281.33L727.457 253.299L726.153 256.719L799.688 284.75L800.992 281.33Z" fill="#3F3D56"/>
<path d="M795.777 295.012L722.242 266.98L720.938 270.401L794.473 298.432L795.777 295.012Z" fill="#3F3D56"/>
<path d="M790.561 308.691L717.026 280.66L715.723 284.08L789.257 312.111L790.561 308.691Z" fill="#3F3D56"/>
<path d="M785.346 322.373L711.812 294.342L710.508 297.762L784.042 325.793L785.346 322.373Z" fill="#3F3D56"/>
<path d="M780.131 336.054L706.597 308.023L705.293 311.444L778.828 339.475L780.131 336.054Z" fill="#3F3D56"/>
<path d="M774.917 349.734L701.382 321.703L700.078 325.123L773.613 353.154L774.917 349.734Z" fill="#3F3D56"/>
<path d="M769.702 363.416L696.167 335.385L694.863 338.805L768.398 366.836L769.702 363.416Z" fill="#3F3D56"/>
<path d="M813.656 430.145L623.721 361.928L662.018 255.297L742.226 330.503L851.954 323.515L813.656 430.145Z" fill="#3F3D56"/>
<path d="M717.148 396.545L622.442 362.53L645.518 298.277L647.401 298.953L625.001 361.323L717.824 394.662L717.148 396.545Z" fill="#FD5555"/>
<path d="M683.484 328.214L655.716 318.24L651.727 329.348L679.495 339.321L683.484 328.214Z" fill="#FD5555"/>
<path d="M369.521 642.111L220.865 642.032L222.032 558.576L295.91 591.781L370.688 560.655L369.521 642.111Z" fill="#3F3D56"/>
<path d="M254.435 604.243L232.701 603.939L232.58 612.633L254.313 612.937L254.435 604.243Z" fill="#FD5555"/>
<path d="M371.185 560.54L296.045 598.847L221.641 560.54V558.33H371.185V560.54Z" fill="#FD5555"/>
<path d="M803.148 244.663C804.924 240.003 795.905 232.239 783.004 227.321C770.102 222.403 758.204 222.194 756.427 226.854C754.651 231.513 763.67 239.278 776.571 244.196C789.473 249.114 801.372 249.323 803.148 244.663Z" fill="#FD5555"/>
<path d="M823.565 102.554C818.799 101.072 813.789 100.543 808.82 100.998C803.85 101.453 799.019 102.882 794.602 105.203C790.184 107.525 786.268 110.694 783.075 114.53C779.883 118.365 777.477 122.792 775.995 127.557C769.764 147.597 786.746 220.961 786.746 220.961C786.746 220.961 842.336 170.163 848.568 150.123C851.56 140.499 850.607 130.081 845.918 121.16C841.229 112.239 833.188 105.546 823.565 102.554ZM806.937 156.028C803.537 154.971 800.528 152.93 798.288 150.162C796.049 147.394 794.681 144.025 794.356 140.48C794.032 136.934 794.766 133.373 796.466 130.245C798.166 127.117 800.756 124.563 803.907 122.907C807.058 121.25 810.63 120.566 814.17 120.939C817.711 121.313 821.061 122.728 823.797 125.005C826.533 127.283 828.533 130.321 829.542 133.734C830.552 137.148 830.527 140.785 829.47 144.184C828.768 146.442 827.628 148.538 826.116 150.355C824.604 152.172 822.749 153.673 820.656 154.773C818.564 155.873 816.275 156.55 813.921 156.765C811.568 156.98 809.194 156.73 806.937 156.028Z" fill="#FD5555"/>
</svg>
