<svg width="20" height="20" viewBox="0 0 20 20" fill="none" xmlns="http://www.w3.org/2000/svg">
<path d="M19.1819 9.30273C18.7149 9.30273 18.3299 9.64172 18.3299 10.1114C18.2889 13.1704 16.5193 15.9354 13.8117 17.4179C9.73181 19.6519 4.96374 17.6466 3.1368 14.9266L5.71336 15.4616C6.13937 15.5474 6.60635 15.2901 6.69237 14.8245C6.77839 14.3997 6.52033 13.9341 6.05335 13.8484L0.98626 12.7865C0.691328 12.7171 -0.0828679 12.9294 0.00725012 13.7218L0.646269 18.8187C0.687232 19.2435 1.03132 19.5416 1.45733 19.5416C2.09225 19.5416 2.35032 19.076 2.30936 18.6064L2.01033 16.1191C6.15166 21.0732 11.4072 20.383 14.5777 18.9494C17.8588 17.2055 19.9479 13.8525 19.9889 10.1522C19.993 9.68664 19.6489 9.30273 19.1819 9.30273Z" fill="black"/>
<path d="M0.813992 10.6953C1.28097 10.6953 1.66602 10.3563 1.66602 9.8866C1.70698 6.82759 3.47657 4.06264 6.18421 2.5801C10.2641 0.346086 15.0322 2.35139 16.8591 5.07142L14.2825 4.5364C13.8565 4.45063 13.3896 4.70793 13.3035 5.17352C13.2175 5.59827 13.4756 6.06386 13.9426 6.14963L19.0137 7.2115C19.3087 7.28093 20.0829 7.06856 19.9927 6.27624L19.3537 1.17925C19.3128 0.754498 18.9687 0.456357 18.5427 0.456357C17.9077 0.456357 17.6497 0.921948 17.6906 1.39162L17.9856 3.87885C13.8442 -1.07111 8.58872 -0.384973 5.4182 1.05264C2.13709 2.79248 0.0479887 6.14963 0.00292969 9.84576C0.00292969 10.3154 0.347017 10.6953 0.813992 10.6953Z" fill="black"/>
</svg>
